<?xml version="1.0" encoding="UTF-8"?>
<svg id="Capa_2" data-name="Capa 2" xmlns="http://www.w3.org/2000/svg" viewBox="0 0 369.37 388.9">
  <defs>
    <style>
      .cls-1 {
        fill: #ff9500;
        stroke-width: 0px;
      }
    </style>
  </defs>
  <g id="Capa_1-2" data-name="Capa 1">
    <g id="Capa_1-2" data-name="Capa 1-2">
      <g>
        <path class="cls-1" d="M137.63,366.27c-.84,0-2.31.42-3.08,1.47-3.08,4.47-7.48,7.27-11.53,7.27-1.54,0-3.42-2.52-4.96-4.41-1.75-2.24-4.41-4.47-7.34-4.47-2.59,0-4.61,1.68-6.43,3.5-1.54,1.54-3.5,4.2-4.96,5.31-.07-.42-.14-.77-.14-1.12s-.07-.7-.14-1.12c1.61-1.47,4.33-3.99,6.57-7.62,2.24-3.63,4.05-8.18,4.05-13.84,0-7.55-2.45-15.1-9.44-15.1-3.01,0-5.1,1.54-6.5,3.99-.63,1.19-1.19,2.52-1.61,4.05-.84,3.08-1.26,6.5-1.33,9.72-.07,1.61-.07,3.14-.07,4.54,0,4.07.11,7.3.33,10.39-2.99,3.23-5.79,5.62-12.84,5.62-4.68,0-7.69-4.41-7.69-8.32,0-5.17,2.38-7.62,4.41-7.62s2.45,1.19,2.45,2.52c0,1.12-.28,2.03-.28,2.59,0,1.75,1.47,3.43,3.56,3.43,3.08,0,4.41-3.5,4.41-6.29,0-5.45-4.12-9.78-10.14-9.78-8.88,0-12.02,8.39-12.02,15.17,0,.32,0,.64.02.95-.62.49-1.26,1.23-2.05,2.34-1.75,2.31-3.99,3.29-6.57,3.29-1.61,0-2.45-.07-3.84-.98,3.71-2.66,6.78-7.41,6.78-11.81,0-4.82-3.08-8.95-9.02-8.95-7.9,0-11.32,6.78-11.32,13,0,1.18.14,2.34.39,3.45-3.75,2.76-8.51,3.26-13.39,3.26-2.87,0-4.96-1.33-6.57-3.35-.77-.98-1.47-2.17-1.96-3.42-1.05-2.59-1.68-5.31-1.89-7.97-.14-1.26-.21-2.45-.21-3.5,0-1.26.07-2.17.21-3.29,1.89,0,4.05-.07,6.5-.28,2.38-.14,4.75-.21,7.06-.21,3.5,0,4.89-1.54,4.89-4.05,0-2.73-1.33-3.29-3.84-3.61h-14.89c0-1.08,0-2.76-.21-4.43v-5.31c.28-2.52-1.26-3.56-3.57-3.56-3.56,0-3.84,1.75-4.43,4.96v4.54c.59,1.26.52,2.59.52,4.12-3.84,0-5.52,1.19-5.52,4.26s2.93,3.63,5.73,3.63c-.07.91-.14,1.89-.14,2.87,0,3.77.28,7.97,1.33,11.81.49,1.96,1.19,3.77,2.1,5.52,1.75,3.42,4.41,6.08,8.25,7.62,1.89.77,4.12,1.12,6.71,1.12,7.72,0,13.38-1.39,16.95-3.77.32.36.66.71,1.01,1.04,3.14,2.93,7.48,4.82,12.37,4.82,3.94,0,8.06-1.54,11.3-4.62.72,1.03,1.56,1.92,2.47,2.66,3.01,2.52,6.78,3.63,10,3.63,5.36,0,9.81-1.71,13.82-4.5,0,.06.01.11.02.17.21,2.1,2.87,4.89,7.13,4.89,3.71,0,6.22-1.82,7.76-4.05,1.33-1.82,2.52-3.99,4.12-3.99.77,0,2.59,2.52,3.99,3.99,1.89,2.1,4.82,4.05,8.18,4.05,6.99,0,12.86-3.63,17.54-10.07.49-.63.84-1.47.84-2.38,0-2.31-1.89-3.77-3.84-3.77h0ZM44.87,366c-.21-.84-.35-1.68-.35-2.52,0-2.73.91-5.45,3.71-5.45,1.4,0,1.47.91,1.47,1.4,0,2.03-2.8,5.38-4.82,6.57h0ZM98.14,365c-.14-.63-.21-1.82-.21-3.22,0-2.17.42-7.34.77-10.14.35-2.73.98-6.78,1.54-7.83,1.19.35,1.89,5.38,1.89,7.55,0,3.14-2.1,10.48-3.99,13.63h0Z"/>
        <path class="cls-1" d="M274.99,345.86c-2.38.35-3.42,1.61-4.05,2.93-.35.63-.56,1.33-.56,2.1,0,2.45,2.73,4.2,5.03,4.2,2.93,0,4.61-2.17,4.61-4.54,0-2.1-2.24-4.68-5.03-4.68h0Z"/>
        <path class="cls-1" d="M365.5,366.11c-.91,0-1.82.49-2.59,1.05-4.61,3.08-10.56,6.5-15.24,6.5-2.45,0-4.68-.21-5.87-1.89,5.73-3.43,11.05-8.53,11.05-14.47,0-5.1-3.92-8.81-8.95-8.81-4.12,0-7.27,1.89-9.51,4.89-2.17,3.01-3.35,7.2-3.35,11.75,0,1.06.09,2.07.25,3.03-1.31,1.3-2.75,2.57-4.66,2.77-.21.07-.35.07-.49.07h-.49c-.77,0-1.19-.14-1.75-.28.21-.77.42-4.12.42-5.73,0-.35-.07-.63-.07-.77-.07-.21-.07-.35-.07-.56-.56-3.22-2.03-7.34-8.6-7.34-6.15,0-8.67,5.31-8.67,9.37,0,5.17,3.77,8.81,7.41,10.63-.7,1.89-3.29,5.03-6.36,5.03-1.89,0-2.38-1.61-2.38-3.71,0-1.19.07-2.31.21-3.22.21-.98.28-2.03.28-3.22,0-4.61-2.31-9.02-7.62-9.02-3.06,0-6.74,3.59-7.81,5.7-1.73,2.22-4.02,5.28-6.45,5.28-3.92,0-7.34-6.64-9.09-11.05-.7-1.61-1.89-2.17-3.22-2.17-3.08,0-4.12,1.96-4.12,3.14,0,1.82-.98,3.22-1.61,3.99-.04.05-.08.11-.12.16-.27.25-.53.53-.79.82-1.33,1.33-2.8,2.66-4.75,2.87-.21.07-.35.07-.49.07h-.49c-.77,0-1.19-.14-1.75-.28.21-.77.42-4.12.42-5.73,0-.35-.07-.63-.07-.77-.07-.21-.07-.35-.07-.56-.56-3.22-2.03-7.34-8.6-7.34-6.15,0-8.67,5.31-8.67,9.37,0,5.17,3.77,8.81,7.41,10.63-.7,1.89-3.29,5.03-6.36,5.03-1.89,0-2.38-1.61-2.38-3.71,0-1.19.07-2.31.21-3.22.21-.98.28-2.03.28-3.22,0-4.61-2.31-9.02-7.62-9.02-2.78,0-6.06,2.96-7.44,5.08-4.59,3.05-10.44,6.39-15.06,6.39-2.45,0-4.68-.21-5.87-1.89,5.73-3.43,11.05-8.53,11.05-14.47,0-5.1-3.92-8.81-8.95-8.81-4.12,0-7.27,1.89-9.51,4.89-2.17,3.01-3.35,7.2-3.35,11.75,0,1.07.09,2.08.26,3.05-1.58,1.6-2.85,2.47-3.9,2.47-2.03,0-2.73-2.1-2.73-6.01,0-1.47.42-10.21.42-11.67,0-2.52-1.26-3.77-3.5-3.77-3.56,0-4.61,1.89-7.69,1.89-1.68,0-3.35-.14-4.89-.49-1.54-.28-3.14-.42-4.68-.42-1.75,0-2.38,1.05-2.38,2.66,0,2.1,1.26,5.45,1.26,7.34,0,2.31-.28,4.54-1.47,6.64-.56.98-.91,1.75-.91,3.14,0,1.82,1.26,3.77,3.77,3.77s4.12-2.66,4.96-5.45c.77-2.38,1.26-5.94,1.26-7.41v-1.4c0-.42-.07-.84-.07-1.12,1.12.14,2.45.35,3.71.35,1.12,0,1.96-.28,2.93-.56l-.21,3.22c-.07.98-.14,2.03-.14,3.29,0,8.04,3.29,13.56,10.35,13.56,2.38,0,4.77-.8,7.24-2.74.44.53.92,1.02,1.43,1.49,3.08,2.73,7.2,4.26,11.6,4.26,7.69,0,15.31-3.22,20.55-8.53.43-.47.75-.92.93-1.48.3-.47.62-.97,1.02-1.46.07.28.07.42.07.77,0,.98-.07,1.96-.28,3.01-.14.98-.28,2.17-.28,3.42,0,8.04,4.2,11.96,10.14,11.96,4.68,0,11.6-3.56,13.63-10.97.91.42,2.93.56,4.89.56,3.94,0,8.65-2.8,10.82-5.65.15-.13.3-.27.44-.43,3.29,5.24,7.55,8.32,12.37,8.32,3.77,0,10.27-4.62,12.58-8.04.4-.54.65-1.09.79-1.58.28-.44.58-.9.95-1.35.07.28.07.42.07.77,0,.98-.07,1.96-.28,3.01-.14.98-.28,2.17-.28,3.42,0,8.04,4.2,11.96,10.14,11.96,4.68,0,11.6-3.56,13.63-10.97.91.42,2.93.56,4.89.56,2.67,0,5.69-1.29,8.03-3,.44.52.91,1.01,1.41,1.46,3.08,2.73,7.2,4.26,11.6,4.26,7.69,0,15.31-3.22,20.55-8.53.7-.77,1.12-1.47,1.12-2.72,0-2.31-1.96-3.84-3.84-3.84h-.02ZM206.41,356.14c.63,0,1.33.42,1.33,1.26,0,2.52-4.47,6.5-6.78,7.83,0-3.08,1.96-9.09,5.45-9.09ZM250.73,369c-1.19-.35-1.96-1.75-1.96-2.87,0-.77.28-1.82,1.05-1.82.98,0,1.54,1.82,1.54,3.01,0,.77-.28,1.47-.63,1.68h0ZM316.86,369c-1.19-.35-1.96-1.75-1.96-2.87,0-.77.28-1.82,1.05-1.82.98,0,1.54,1.82,1.54,3.01,0,.77-.28,1.47-.63,1.68h0ZM342.52,357h2.84c.14.19.23.43.23.72,0,2.52-4.47,6.5-6.78,7.83,0-2.52,1.31-7.01,3.71-8.55Z"/>
        <path class="cls-1" d="M42,274v-1h1v1h-1Z"/>
        <path class="cls-1" d="M23.04,206.43c.66,1.52.16,3.05-.04,4.61-.31,2.59.82,5.29,2.8,6.96,2.24,2.16,5.78,1.21,6.07,5,.6,7.74,3.74,15.3,9.04,21.02,2.97,3.02,6.41,5.91,10.66,6.74,1.94.33,4.01.41,5.9-.11,1.96-.61,3.36-2.1,5.44-2.13,1.56-.05,3.2-.24,4.55-1.1,1.26-.75,2.12-1.94,3.32-2.7,1.26-.87,2.89-1.11,4.14-2.04.99-.72,1.73-1.76,2.77-2.4l.06-.04c1.46-.89,3.46-.95,4.9-2,4.66-3.27,3.67-9.33-.91-12.14-1.48-.99-3.27-1.35-5.03-1.24-1.48.08-3.16.18-4.31-.82-1.56-1.36-2.02-3.61-2.01-5.62.12-3.15,1.18.42,1.62,1.31.48,1.04.99,2.18,1.96,2.85,1.44.99,3.29.35,5.02.76,1.18.14,2.7,1.18,3.73.26.31-.34.46-.91.52-1.6.18-4.11-1.27-8.27-3.6-11.63-4.38-6.04-11.92-9.32-19.25-9.57-4.99-.21-5,.33-7.97,4.05-1.84,1.8-.19-1.16.11-1.77.85-1.65,1.36-3.45,1.48-5.3.44-3.59-2.27-7.39-6.12-6.29-.71.23-1.46.57-1.79-.36-.63-1.68-.85-3.55-.78-5.34.54-7.36,5.96-13.41,13.13-14.95,2.55-.76,5.28-.51,7.82-1.28,3.45-1.09,6.77-3.67,7.98-7.21,1.68-4.9.17-10.93-3.77-14.27-6.38-5.12-17.72-2.87-24.84-.29-4.19,1.66-8.22,3.72-11.87,6.36-3.02,2.41-5.86,5.12-8.19,8.21-1.87,2.6-3.73,5.3-4.88,8.3-1.3,3.52-2.3,7.19-2.62,10.93-.19,1.79-.43,3.61-.41,5.39.17,2.73.53,5.49,1.09,8.2.79,3.97,2.57,7.62,4.31,11.23h0Z"/>
        <path class="cls-1" d="M277.09,37.39c1.42,3.41,1.42,7.29,2.13,10.88.28,2.17.58,4.31.91,6.44.16,1.04.08,2.19-.7,2.93-1.38,1.27-4.15,1.64-5.77,2.97-5.23,3.49-4.59,10.74-2.14,15.74,2.61,6,9.15,9.38,11.6,15.33.61,1.29,1.79,1.5,3.06.95,1.21-.49,2.87-1.05,3.5-2.02.59-.82.51-1.93.32-2.92-1.35-5.69-2.11-11.64-3.59-17.37-1.14-2.89-4.65-4.63-3.66-8.23.96-4.56,8.37-4.4,9.09.3.6,2.32-1.26,4.28-1.41,6.5,0,3.25,1.13,6.45,1.59,9.64.42,2.61.82,5.29,1.24,7.95.26,1.62.17,4.06-1.02,5.12-.41.33-1.33.72-2,.95-6.32,2.19-14.21,7.13-12.78,14.77.38,1.65,1.59,3.6,3.26,3.96,1.77.24,3.41-.89,5.11-1.33,3.42-.98,7.09-1.56,10.69-1.31,1.09.13.66.33-.13.45-6.09.84-15.06,1.98-16.34,8.73-.2,2.75,2,5.09,4.83,4.89,2.05.14,5.99-1.08,7.82-.46-.04.3-.9.4-1.97.68-2.32.63-5.1,1.13-6.34,3.38-2.06,4.14,1.94,7.31,5.96,6.29,2.07-.33,4.18-.63,6.31-1.06.59-.02,11.46-3.03,8.27-1.2-1.39,1.11-7.32,1.52-5.21,4.11,5.91,5.43,19.08,4.41,20.6-4.37.34-1.82-.87-3.4-.36-5.2,1.53-4.62,2.76-9.49,2.13-14.42-.96-8.88-5.03-17.16-12.8-21.51-1.61-1.06-1.77-2.76-1.2-4.46,2.55-9.07,3.56-18.86-.08-27.58-1.74-4.09-3.95-2.05-6.77-3.18-1.76-1.33-1.47-4.47-2.03-6.48-.56-4.58-1.98-9.27-2.1-13.87v-.07c.53-3.5,3.82-6.13,4.83-9.51,3.15-9.46-3.84-18.85-11.97-23.48-3.07-1.55-1.91,2.67-1.58,4.29.47,2.1.94,4.21,1.3,6.32.53,2.26.85,4.93-2.03,5.36-1.76.36-3.62.57-5.41.84-1.37.18-3.03.48-4.08-.63-.85-.86-1.15-2.53-1.5-4.02-.53-2.39-.91-4.83-1.36-7.21-.38-2.57-1.52-3.1-3.41-1.22-6.99,6.6-9.21,19.25-2.17,26.6,2.13,2.53,5.67,3.88,7.37,6.73h0Z"/>
        <path class="cls-1" d="M199.2,264.3c-1.07-.42-2.49.38-3.65.54-1.66.42-3.34.76-5.06.96-5.39.57-10.76-.42-15.74-2.4-1.27-.36-1.89.65-2.15,1.71-.9,3.41-1.43,6.77-1.47,10.31.02,1.07-.29,2-.71,2.93-.52,1.18-.4,2.4-.29,3.81.07.77.21,1.54.55,2.24l.03.07c2.78,4.48,10.28,4.55,14.95,5.82,9.4,2.19,18.92,4.64,28.37,6.43,8.29,1.03,17.01,1.47,25.07-.99,4.11-1.3,7.79-3.03,7.47-7.98-.16-2.05-.97-3.33-.72-5.25.89-11.01-5.95-22.8-17-25.14-9.79-3.08-21.25.12-28.15,8.07-.46.51-.76.9-1.19,1.18-.09.04-.17.07-.22,0-.19-.46.55-1.83-.09-2.29h0Z"/>
        <path class="cls-1" d="M123,114.48c.6,0,1.87-.45,1.8-1.95s0-16.01,0-16.01c0-.08,0-.15-.01-.23-.1-1.03-1.1-1.72-2.11-1.51h-.03c-.82.18-1.41.9-1.65,1.74v16.3c.23,1.22,1.45,2.09,2,1.67h0Z"/>
        <path class="cls-1" d="M152.35,240.58c-6.11,1.8-13.82.21-17.62-5.19-.59-.74-1.48-2.73.18-1.38,4.07,4.13,10,6.2,15.73,4.97,1.64-.42,4.66-.59,5.2-2.33v-.03c-7.15-2.11-13.25-1.89-17.11-9.89-.7-1.39-1.43-3.07-1.18-4.55.41-1.7,1.5-.68,1.96.61,1.44,4.86,5.07,9.19,10.02,10.79,5.39,1.71,11.44,1.75,16.35-1.42,1.99-1.2,4.57-3.43,3.41-5.97-1.47-3.78-10.08-8.77-9.91-12.07,2.45-2.79,5.73.94,7.51,2.83,6.95,7.13,11.39,16.66,12.13,26.6.44,2.97-1.01,6.37.15,9.16,3.31,3.58,9.33,3.21,13.82,3.1,1.7.15-2.6,1.2-3.34.93-5.32.3-14.29.15-12-7.54-3.22-2.58-11.44,8.73-1.17,13.11,9.53,4.15,21.55,2.3,29.79-3.88,2.13-1.34,5.13-1.55,5.91-4.18,1.54-4.82-2.83-6.49-4.45-10.01.03-6.82-.34-13.8-3.04-20.18-2.05-5.45-4.97-10.49-8.72-14.96-1.27-2.02-7.06-5.61-2.31-6.89,21.99-7.22,44.15-13.94,66.25-20.8,13.1-3.74,11.62-3.62,11.54-16.59-.15-4.83,6.5-2.06,9.42-2.84,13.45-.99,27.27-8.43,33.34-20.8,2.28-5.4-8.71,2.2-17.81-6.88-4.58-1.6-9.26,2.62-13.88,3.11-3.37.25-7.89.3-10.48-2.05-1.67-13.16-.05-27.06-.63-40.43.33-2.68-2.43-3.3-3.65-4.91-1.49-7.32,1.42-15.51-2.56-22.34-2.86-5.46-9.54-5.7-14.88-7.03-9.12-2.01-18.23-3.82-27.37-5.54-3.19-1.09-12.96-.84-12.95-4.85,3.66-17.42-7.5-15.6-20.2-13.44l-99.76,14.91c-10.06,1.19-4.38,9.07-9.54,9.66-49.53,8.15-44.7-1.01-44.57,50.35,1.32,9.96.69,19.97.82,30.03-.29,2.49.99,3.81,3.46,2.37,2.03-.69,3.3-2.54,3.06-4.71.11-6.35-.21-12.79.13-19.16.93-2.5,3.92.33,5.7.72,7.8,3.5,15.61,7.11,23.35,10.75,5.17,2.92,11.35,4.41,16.09,7.95,2.33,24.88.07,50.91.83,76.08.2,2.04-.87,2.57-2.1,3.62-1.53,5.57-1.96,11.16,4.56,13.39,5,2.2,16.71-4.47,22.81-5.05,2.9.16,1.03,6.24,1.56,8.28.55,8.67-.48,17.5,1.87,26,2.95,12.73,15.69,22.1,27.61,13.42,9.4-7.16,12.66-20.33,10.98-31.64-.13-2.66-1.54-4.44-4.32-3.2h0ZM241.7,89c.46-4.81.22-9.7.22-14.53,0-.99-.3-2.15.25-3.03l.03-.05c.4-.55,1.16-.75,1.83-.87,2.03-.35,4.05-.69,6.07-1.02,2.69-.54,2.59,1.56,2.5,3.57-.13,1.87-.35,3.7-.12,5.58.25,3.15.08,6.3.13,9.48.01,1.24-.16,2.68-1.35,3.32-2.09.93-4.52,1.05-6.73,1.52-2.76.51-3.09-1.81-2.85-3.96h0ZM209.48,56.27c1.03-.3,2.23.11,3.27.31,1.61.37,3.3.59,4.94.94,3.51.84,7.1,1.34,10.61,2.21,2.7.71,5.54,1.1,8.28,1.65.48.1,1.55.34,1.65.65,0,.33-1.12.57-1.55.64-1.73.35-3.54.58-5.29.21-3.52-.78-7.04-1.49-10.58-2.21-1.35-.33-2.7-.63-4.06-.86-1.87-.32-3.76-.73-5.59-1.1-.83-.17-2.13-.44-2.49-1.17l-.02-.04c-.22-.5.12-1.03.82-1.22h0ZM85.24,71.53c.11-2.93.49-5.88.8-8.78.28-3.9,2.47-7.3,6.47-8.14l107.04-15.73c1.59-.26,4.18-.09,5.32.76.08.06.14.13.14.22v.02c-.05.18-.63.32-1.41.42-2.32.32-4.63.71-6.97,1.03-3.94.54-7.93,1.19-11.85,1.78-4.01.51-8.02,1.2-12.01,1.78-3.8.34-7.46,1.11-11.25,1.66-5.96.73-11.96,1.56-17.88,2.63-9.33,1.4-18.61,2.74-27.96,4.02-2.63.39-5.34.67-8.01,1.08-5.18.78-9.64,1.1-12.16,6.46-.57,1.29-.8,2.73-.92,4.13-.18,2.18-.4,4.3-.63,6.45-.22,2.37-.46,4.72-.73,7.02-.28,2.83-1.81,2.83-4.34,1.87-1.54-.59-3.86-.91-4.08-2.89-.04-1.9.46-3.88.44-5.82h0ZM185.74,55.17c-.25,2.45-1.39,3.74-3.72,4.07-2.68.49-5.38.87-8.14,1.28-4.11.65-8.14,1.45-12.19,2.07-4.11.96-8.33,1.2-12.47,2.02-5.25.86-10.47,1.74-15.71,2.69-3.28.49-6.47.93-9.71,1.64-4.39.77-8.83,1.34-13.16,2.19-1.25.16-3.17.74-3.83-.57-.36-.73-.17-2.08.04-3.29.16-.87.46-1.75,1.13-2.34l.05-.04c.57-.5,1.35-.75,2.2-.93,2.01-.43,4.19-.78,6.28-1.09,4.89-.84,9.79-1.45,14.69-2.26,3.43-.48,6.85-1.16,10.27-1.74,2.46-.34,4.94-.6,7.4-1.04,9.23-1.68,18.47-2.93,27.72-4.47,2.1-.36,4.16-.68,6.21-1.01,2.49-.48,3.35.35,2.94,2.83h0ZM89.81,127c.18,3.95-2.17,2.2-4.35,1.22-5.46-2.59-11.03-5.03-16.63-7.33-2.31-.92-4.49-2.15-6.75-3.17-2.99-1.32-6.02-2.47-8.98-3.87-2.31-1.05-4.68-1.96-6.92-3.06-.85-.41-1.7-.97-2.17-1.77l-.04-.06c-.44-.76-.54-1.75-.55-2.65,0-7.09.02-14.24-.02-21.38,0-1.34-.07-2.69-.17-4.01-.05-.79.01-1.94.75-2.21.7-.29,1.87.15,2.65.44,4.52,1.6,9,3.49,13.56,4.98,5.87,2.34,11.75,4.64,17.62,6.99,1.72.67,3.46,1.25,5.15,1.94,1.78.72,3.71,1.54,4.91,3.09,1.91,2.45,1.93,5.79,1.93,8.77-.03,7.37-.02,14.75-.01,22.1h0ZM89.4,86.71c-4.29-1.7-8.72-3.05-13.07-4.64-4.91-1.78-9.84-3.6-14.76-5.31-1.87-.62-3.74-1.24-5.59-1.88-.59-.29-4.78-1.53-2.33-1.94,4.2-.78,8.79-1.35,12.97-2.02,2.55-.47,5.15-.59,7.7-1.05,1.43-.22,2.87-.49,4.27-.8,1.74-.41,3.54-.64,3.48,1.87-.02,1.24-.17,2.49-.27,3.73-.13,1.82-.53,3.72.93,4.88.98.74,2.25,1.05,3.36,1.56,2.35.97,4.79,1.88,7.28,2.42,2.32.45,4.53-.33,6.86-.67,1.07-.19,2.23-.25,3.26-.57,1.62-.56,2.44-1.98,4.14-2.26l87.14-14.39c1.43-.08,2.84.28,4.23.36h.08c1.69.11,3.37-.3,5.03-.56,1.52-.29,3.22-.36,4.15-1.19,1.54-1.56.86-3.74,3.97-3.21,4.29.9,8.55,1.76,12.82,2.7,1.77.41,3.71.69,5.42,1.3.39.18.5.4.29.6-.23.23-.89.46-1.66.64-2.38.49-4.85.85-7.27,1.31-6.2,1.03-12.35,2.1-18.51,3.29-18.03,2.97-35.95,6.32-53.96,9.35-4.81.66-9.56,1.83-14.36,2.51-2.35.18-4.71.91-7.07,1.06-3.52,0-6.87-2.28-10.37-2.25-3.47.38-6.96.96-10.41,1.45-1.33.2-2.59.67-3.14,1.92-.36.7-.59,1.53-1.14,2.13-1.06,1.2-3.5,1.42-5.23,1.73-3.93.78-4.94-.34-8.22-2.05h-.02ZM117.07,98.95c.11-1.65-.3-3.54.38-5.08.42-.81,1.35-1.14,2.21-1.32,2.08-.44,4.23-.59,6.24-1.1,1.12-.15,2.56-.89,3.55-.18l.04.04c.44.41.51,1.3.51,1.96v19.31c0,.72-.07,1.52-.4,2.12-1.1,2.07-5.97,1.94-8.11,2.53-.81.13-1.67.38-2.47.38-1.27.06-1.59-1.16-1.62-2.24-.06-1.12-.13-2.27-.18-3.39-.25-4.37-.14-8.73-.15-13.04h0ZM99.84,106.35c.42-2.05,2.34-2.41,4.05-2.74,1.42-.29,3.02-.78,3.81-.26,1.52,1.13.59,5.98.84,7.93.19,7.6-1.97,18.45,9.61,14.64,3.54-.7,7.02-1.72,10.54-2.45,2.12-.4,5.03-.8,4.96-3.54.12-5.06,0-10.15.04-15.24.06-1.64-.22-3.74.46-5.07,1.19-2.19,6.46-2.14,8.86-2.83,10.77-1.98,21.52-4.03,32.27-6.17,7.58-1.03,15.08-2.76,22.6-4.06,11.54-2.31,23.18-4.61,34.75-6.63,1.58-.04,1.86,1.82,1.81,3.21.2,4.43-.44,8.98.32,13.35.89,2.54,3.54,4.49,6.25,3.8,3.76-.74,7.53-1.5,11.25-2.34,3.64-.54,3.94-3.08,3.69-6.59l.06-7.78c.14-2.34-.5-4.93.55-7.07.75-1.08,2.17-1.18,3.64-1.51.72-.13,1.56-.38,2.19.04l.04.03c.5.4.6,1.43.58,2.17,0,6.9,0,13.69.01,20.44.15,1.81,0,3.97-2.17,4.33-11.87,2.7-23.74,5.37-35.68,7.84-4.37,1.23-5.23.88-5.65-3.74-1.12-7.48-3.93-12.98-9.95-14.01-3.81-.44-7.38,2.25-9.29,5.42-2.36,3.88-3.62,8.29-4.09,12.8-.26,1.73.1,3.95-1.39,5.18-1.29.97-3.14,1.08-4.7,1.47-2.84.59-5.65,1.22-8.41,1.8-5.31,1.2-10.65,2.39-15.98,3.52-2.74.64-3.01-1.52-3.29-3.61-1.21-5.79-3.97-13.39-10.31-15.06-5.41-.68-9.19,4.41-11.39,8.75-1.5,3.08-2.09,6.55-2.64,9.91-.47,1.94.17,4.46-1.37,5.95-1.85,1.31-4.49,1.21-6.64,1.87-3.4.86-6.82,1.57-10.25,2.4-4.7,1.05-9.38,2.05-14.05,3.21-1.77.3-3.96,1.12-5.64,1.07-.25-.09-.31-.37-.32-.63-.13-3.62-.7-19.54.02-29.81h-.01ZM212.45,120.92c-2.72.24-5.42-5.24-6.05-12.24s1.07-12.88,3.78-13.12c2.72-.24,5.42,5.24,6.05,12.24.63,7-1.07,12.88-3.78,13.12ZM204.29,106.15c0,1.47-.82,2.66-1.83,2.66s-1.83-1.19-1.83-2.66.82-2.66,1.83-2.66,1.83,1.19,1.83,2.66ZM155.08,133.06c-2.88.26-5.74-5.29-6.37-12.39s1.19-13.06,4.07-13.32,5.74,5.29,6.37,12.39c.63,7.1-1.19,13.06-4.07,13.32ZM146.74,118.13c0,1.47-.82,2.66-1.83,2.66s-1.83-1.19-1.83-2.66.82-2.66,1.83-2.66,1.83,1.19,1.83,2.66ZM103.56,221.15c-1.8.59-3.17.5-3.28-1.62-.09-24.11,0-48.1-.03-72.23-.57-4.29,3.54-4.36,6.59-5.1,6.87-1.59,13.73-3.13,20.6-4.7,2.67-.72,5.36-1.34,7.99-2,1.49-.48,3.06-.11,3.54,1.48,2.11,7.27,7.49,16.6,16.11,11.24,5.57-3.85,6.85-11.3,8.2-17.48.42-1.4,1.68-2.02,3.04-2.28,2.7-.58,5.41-1.14,8.07-1.81,4.79-1.09,9.64-2.09,14.4-3.24,2.16-.33,4.52-1.5,6.67-1.02.81.27,1.18,1.48,1.45,2.53,1.56,4.98,4.5,11.53,10.36,12.19,4.45.49,7.8-3.32,9.81-6.84,1.34-2.51,2.1-5.21,2.66-7.97.36-1.58.27-3.61,1.41-4.82l.05-.05c.93-.96,2.54-1.22,3.84-1.51,3.02-.66,6.21-1.25,9.28-1.95,9.14-1.78,18.28-4.01,27.39-5.84.85-.11,1.14-.06,1.16.43.03,6.63.9,51.58-.13,61.92-.33.61-1.97,1.13-2.99,1.44-2.38.74-4.79,1.41-7.13,2.17-5.16,1.49-10.24,3.23-15.33,4.92-20.32,6.21-40.64,12.41-60.8,19.09-24.32,7.65-48.54,15.61-72.92,23.06h0Z"/>
        <path class="cls-1" d="M248,90.83c-.28,0,.99-.45.92-1.95-.06-1.5,0-16.01,0-16.01,0-.08,0-.15-.01-.23-.1-1.03-1.1-1.72-2.11-1.51h-.03c-.82.18-1.41.9-.77,1.74v16.3c-.65,1.22.57,2.09,2,1.67h0Z"/>
        <path class="cls-1" d="M206.03,182.24c9.03-8.27,13.33-20.09,16.03-31.71.26-1.14,1.54-1.71,2.57-1.16.6.33,1.19.64,1.78.94,1.95,1.02,5.65,1.3,7.75.14,1.52-.84.97-3.18-.76-3.29-5.15-.32-9.86-4.15-11.59-9.02-.25-.69-.92-1.14-1.66-1.14h-.25c-.38,0-.75.13-1.06.35-.19.15-.39.29-.58.43-2.17,1.61-.45,4.22-.45,4.22.27.76.02,1.6-.64,2.06-15.8,10.86-50.31,17.05-69.73,14.95-1.03-.11-1.76-1.08-1.55-2.09.11-.53.14-1.05.13-1.55,0,0-.02-2.42-2.11-2.66-2.1-.24-2.55,1.58-2.55,1.58-.35.99-.24,2.17-.7,3.15-2.01,4.6-5.98,8.26-10.85,9.26-1.78.36-1.97,2.83-.25,3.41.02,0,.04.01.05.02,4.02,1.44,7.35-.86,10.38-3.24.91-.72,2.26-.38,2.72.69,5.12,12.04,15.79,23.02,29.13,24.76.03,0,.06,0,.1.02,11.85,2.57,25.17-1.86,34.08-10.12h0ZM168.77,186.49c-12.07-2.47-8.18-8.06.79-11.48,8.12-3.15,17.23-4.14,25.89-3.04,2.9.48,8.84,1.26,9.55,4.49v.04c.08,2.97-4.23,4.98-6.65,6.24-9.12,4.39-19.65,5.77-29.58,3.75h0Z"/>
      </g>
    </g>
  </g>
</svg>